<?xml version="1.0" encoding="utf-8"?>
<!DOCTYPE svg PUBLIC "-//W3C//DTD SVG 1.1//EN" "http://www.w3.org/Graphics/SVG/1.1/DTD/svg11.dtd">
<svg version="1.1" xmlns="http://www.w3.org/2000/svg" xmlns:xlink="http://www.w3.org/1999/xlink" x="0px" y="0px" viewBox="0 0 1000 1000" xml:space="preserve">

<g><path d="M798.3,178.1c-18.9-36.4-43.8-66.6-74.6-90.6c-30.8-24-65.7-43-104.6-56.8C580.1,16.9,540.4,10,500,10c-40.4,0-80.1,6.9-119,20.7c-38.9,13.8-73.8,32.8-104.6,56.8c-30.8,24-55.7,54.2-74.6,90.6c-18.9,36.4-28.4,75.6-28.4,117.7c0,65.9,21.9,122.9,65.7,171c19.1,20.8,35,39.3,47.5,55.5c12.6,16.2,25.2,36.5,38,60.9c12.8,24.5,20,47.3,21.7,68.6c-20,11.9-30,29.3-30,52.3c0,15.7,5.3,29.4,16,40.8c-10.6,11.5-16,25.1-16,40.8c0,22.1,9.6,39.3,28.7,51.7c-5.5,9.8-8.3,19.8-8.3,30c0,19.6,6.7,34.7,20.1,45.3c13.4,10.6,29.9,16,49.4,16c8.5,18.7,21.3,33.6,38.3,44.7c17,11.1,35.5,16.6,55.5,16.6c20,0,38.5-5.5,55.5-16.6c17-11.1,29.8-25.9,38.3-44.7c19.6,0,36.1-5.3,49.4-16c13.4-10.6,20.1-25.7,20.1-45.3c0-10.2-2.8-20.2-8.3-30c19.1-12.3,28.7-29.6,28.7-51.7c0-15.7-5.3-29.4-16-40.8c10.6-11.5,16-25.1,16-40.8c0-23-10-40.4-30-52.3c1.7-21.3,8.9-44.1,21.7-68.6c12.8-24.5,25.4-44.8,38-60.9c12.6-16.2,28.4-34.7,47.5-55.5c43.8-48.1,65.7-105.1,65.7-171C826.7,253.7,817.2,214.5,798.3,178.1z M701.6,410.7c-4.3,4.7-10.7,11.7-19.5,21c-8.7,9.4-15.2,16.4-19.5,21c-54.4,65.1-84.4,128.5-90,190.1H427.3c-5.5-61.7-35.5-125-90-190.1c-4.3-4.7-10.7-11.7-19.5-21c-8.7-9.4-15.2-16.4-19.5-21c-28.9-33.6-43.4-71.9-43.4-114.8c0-30.6,7.3-59.1,22-85.5c14.7-26.4,33.8-48,57.4-64.8c23.6-16.8,49.8-30,78.5-39.6c28.7-9.6,57.7-14.4,87.1-14.4s58.4,4.8,87.1,14.4c28.7,9.6,54.9,22.7,78.5,39.6c23.6,16.8,42.7,38.4,57.4,64.8c14.7,26.4,22,54.9,22,85.5C745,338.8,730.5,377.1,701.6,410.7z"/><path d="M563.5,204c-21-6.8-42.2-10.2-63.5-10.2c-5.5,0-10.3,2-14.4,6.1c-4,4-6.1,8.8-6.1,14.4c0,5.5,2,10.3,6.1,14.4c4,4,8.8,6.1,14.4,6.1c22.1,0,44.7,5.3,67.6,15.9c23,10.6,34.4,25.7,34.4,45.3c0,5.5,2,10.3,6.1,14.4s8.8,6.1,14.3,6.1c5.5,0,10.3-2,14.4-6.1c4-4,6.1-8.8,6.1-14.4c0-22.1-8-41.3-23.9-57.4C603,222.3,584.5,210.8,563.5,204z"/></g>
</svg>