<?xml version="1.0" encoding="utf-8"?>
<!-- Svg Vector Icons : http://www.onlinewebfonts.com/icon -->
<!DOCTYPE svg PUBLIC "-//W3C//DTD SVG 1.1//EN" "http://www.w3.org/Graphics/SVG/1.1/DTD/svg11.dtd">
<svg version="1.1" xmlns="http://www.w3.org/2000/svg" xmlns:xlink="http://www.w3.org/1999/xlink" x="0px" y="0px" viewBox="0 0 1000 1000" enable-background="new 0 0 1000 1000" xml:space="preserve">
<metadata> Svg Vector Icons : http://www.onlinewebfonts.com/icon </metadata>
<g><g><g><path d="M973.8,182.4c0-10.8-3.6-19.8-10.8-26.9L844.5,36.9c-7.2-7.2-16.2-10.8-26.9-10.8c-10.8,0-19.8,3.6-26.9,10.8L20.8,806.8C13.6,814,10,823,10,833.8c0,10.8,3.6,19.7,10.8,26.9l118.5,118.5c7.2,7.2,16.2,10.8,26.9,10.8c10.8,0,19.8-3.6,26.9-10.8l769.9-769.9C970.2,202.2,973.8,193.2,973.8,182.4z M706.2,357.8l-64-64.1l175.4-175.4l64.1,64.1L706.2,357.8z"/><polygon points="147.1,163.3 165.1,104.6 223.7,86.6 165.1,68.7 147.1,10 129.1,68.7 70.5,86.6 129.1,104.6 "/><polygon points="302.7,237.5 338.7,354.8 374.6,237.5 491.9,201.6 374.6,165.6 338.7,48.3 302.7,165.6 185.4,201.6 "/><polygon points="931.3,451.8 913.4,393.1 895.4,451.8 836.8,469.8 895.4,487.7 913.4,546.4 931.3,487.7 990,469.8 "/><polygon points="530.2,163.3 548.2,104.6 606.9,86.6 548.2,68.7 530.2,10 512.3,68.7 453.6,86.6 512.3,104.6 "/></g></g><g></g><g></g><g></g><g></g><g></g><g></g><g></g><g></g><g></g><g></g><g></g><g></g><g></g><g></g><g></g></g>
</svg>