<svg xmlns="http://www.w3.org/2000/svg" xmlns:xlink="http://www.w3.org/1999/xlink" x="0px" y="0px" viewBox="0 0 1000 1000" fill="#b24a50">
    <symbol viewBox="0 0 1000 1000" id="light_bulb">   
		<g><path d="M798.3,178.1c-18.9-36.4-43.8-66.6-74.6-90.6c-30.8-24-65.7-43-104.6-56.8C580.1,16.9,540.4,10,500,10c-40.4,0-80.1,6.9-119,20.7c-38.9,13.8-73.8,32.8-104.6,56.8c-30.8,24-55.7,54.2-74.6,90.6c-18.9,36.4-28.4,75.6-28.4,117.7c0,65.9,21.9,122.9,65.7,171c19.1,20.8,35,39.3,47.5,55.5c12.6,16.2,25.2,36.5,38,60.9c12.8,24.5,20,47.3,21.7,68.6c-20,11.9-30,29.3-30,52.3c0,15.7,5.3,29.4,16,40.8c-10.6,11.5-16,25.1-16,40.8c0,22.1,9.6,39.3,28.7,51.7c-5.5,9.8-8.3,19.8-8.3,30c0,19.6,6.7,34.7,20.1,45.3c13.4,10.6,29.9,16,49.4,16c8.5,18.7,21.3,33.6,38.3,44.7c17,11.1,35.5,16.6,55.5,16.6c20,0,38.5-5.5,55.5-16.6c17-11.1,29.8-25.9,38.3-44.7c19.6,0,36.1-5.3,49.4-16c13.4-10.6,20.1-25.7,20.1-45.3c0-10.2-2.8-20.2-8.3-30c19.1-12.3,28.7-29.6,28.7-51.7c0-15.7-5.3-29.4-16-40.8c10.6-11.5,16-25.1,16-40.8c0-23-10-40.4-30-52.3c1.7-21.3,8.9-44.1,21.7-68.6c12.8-24.5,25.4-44.8,38-60.9c12.6-16.2,28.4-34.7,47.5-55.5c43.8-48.1,65.7-105.1,65.7-171C826.7,253.7,817.2,214.5,798.3,178.1z M701.6,410.7c-4.3,4.7-10.7,11.7-19.5,21c-8.7,9.4-15.2,16.4-19.5,21c-54.4,65.1-84.4,128.5-90,190.1H427.3c-5.5-61.7-35.5-125-90-190.1c-4.3-4.7-10.7-11.7-19.5-21c-8.7-9.4-15.2-16.4-19.5-21c-28.9-33.6-43.4-71.9-43.4-114.8c0-30.6,7.3-59.1,22-85.5c14.7-26.4,33.8-48,57.4-64.8c23.6-16.8,49.8-30,78.5-39.6c28.7-9.6,57.7-14.4,87.1-14.4s58.4,4.8,87.1,14.4c28.7,9.6,54.9,22.7,78.5,39.6c23.6,16.8,42.7,38.4,57.4,64.8c14.7,26.4,22,54.9,22,85.5C745,338.8,730.5,377.1,701.6,410.7z"/><path d="M563.5,204c-21-6.8-42.2-10.2-63.5-10.2c-5.5,0-10.3,2-14.4,6.1c-4,4-6.1,8.8-6.1,14.4c0,5.5,2,10.3,6.1,14.4c4,4,8.8,6.1,14.4,6.1c22.1,0,44.7,5.3,67.6,15.9c23,10.6,34.4,25.7,34.4,45.3c0,5.5,2,10.3,6.1,14.4s8.8,6.1,14.3,6.1c5.5,0,10.3-2,14.4-6.1c4-4,6.1-8.8,6.1-14.4c0-22.1-8-41.3-23.9-57.4C603,222.3,584.5,210.8,563.5,204z"/></g>
	</symbol>
    <symbol viewBox="0 0 1000 1000" id="cogs">
		<g><path d="M467.4,499.8c0-38.3-12.8-71-38.3-98.1c-25.5-27.1-56.3-40.7-92.4-40.7c-36,0-66.8,13.6-92.4,40.7c-25.5,27.1-38.3,59.8-38.3,98.1c0,38.3,12.8,71,38.3,98.1c25.5,27.1,56.3,40.7,92.4,40.7c36,0,66.8-13.6,92.4-40.7C454.7,570.8,467.4,538.1,467.4,499.8z M859.3,777.3c0-18.8-6.5-35.1-19.4-48.8s-28.2-20.6-45.9-20.6c-17.7,0-33,6.9-45.9,20.6c-12.9,13.7-19.4,30-19.4,48.8c0,19.1,6.4,35.5,19.1,49.1c12.8,13.6,28.2,20.3,46.2,20.3s33.4-6.8,46.2-20.3C852.9,812.8,859.3,796.5,859.3,777.3L859.3,777.3z M859.3,222.2c0-18.8-6.5-35.1-19.4-48.8s-28.2-20.6-45.9-20.6c-17.7,0-33,6.9-45.9,20.6c-12.9,13.7-19.4,30-19.4,48.8c0,19.1,6.4,35.5,19.1,49.1c12.8,13.6,28.2,20.3,46.2,20.3s33.4-6.8,46.2-20.3C852.9,257.7,859.3,241.3,859.3,222.2L859.3,222.2z M663.4,450.5v100.3c0,3.6-1.2,7.1-3.6,10.6c-2.4,3.4-5.1,5.3-8.2,5.7l-79.1,13c-3.7,12.7-9.2,26.4-16.3,41.2c11.6,17.4,26.9,38.2,45.9,62.4c2.4,3.6,3.6,7.2,3.6,10.9c0,4.3-1.2,7.8-3.6,10.3c-7.8,10.8-21.8,27-42.1,48.5c-20.3,21.5-33.6,32.2-40.1,32.2c-3.7,0-7.3-1.3-10.7-3.8l-58.7-48.8c-12.6,6.9-25.7,12.5-39.3,16.8c-3.7,39-7.6,67-11.7,84c-2.4,8.7-7.5,13-15.3,13h-94.9c-3.7,0-7.1-1.4-10.2-4.1c-3.1-2.7-4.8-5.9-5.1-9.5l-11.7-82.9c-11.6-3.6-24.3-9.2-38.3-16.8l-60.2,48.3c-2.4,2.6-5.8,3.8-10.2,3.8c-3.7,0-7.3-1.4-10.7-4.3c-49-48.1-73.5-77-73.5-86.8c0-3.2,1.2-6.7,3.6-10.3c3.4-5.1,10.4-14.6,20.9-28.7c10.6-14.1,18.6-25.1,24-33.1c-7.8-15.9-13.8-30.7-17.9-44.4l-77.6-13c-3.4-0.4-6.3-2.1-8.7-5.2c-2.4-3.1-3.6-6.6-3.6-10.6V448.9c0-3.6,1.2-7.1,3.6-10.6c2.4-3.4,5.1-5.3,8.2-5.7l79.1-13c3.7-12.7,9.2-26.4,16.3-41.2C105.6,361,90.3,340.2,71.3,316c-2.4-4-3.6-7.6-3.6-10.9c0-4.3,1.2-8,3.6-10.9c7.5-10.8,21.4-26.9,41.8-48.3s33.9-32,40.3-32c3.7,0,7.3,1.3,10.7,3.8l58.7,48.8c11.6-6.5,24.7-12.3,39.3-17.4c3.7-39,7.6-66.9,11.7-83.5c2.4-8.7,7.5-13,15.3-13h94.9c3.7,0,7.1,1.4,10.2,4.1c3.1,2.7,4.8,5.9,5.1,9.5l11.7,82.9c11.6,3.6,24.3,9.2,38.3,16.8l60.2-48.3c2.7-2.6,6.1-3.8,10.2-3.8c3.7,0,7.3,1.4,10.7,4.3c49,48.1,73.5,77,73.5,86.8c0,3.2-1.2,6.7-3.6,10.3c-4.1,5.8-11.2,15.5-21.4,29.3c-10.2,13.7-17.9,24.6-23,32.5c7.8,17.4,13.6,32.2,17.4,44.4l77.6,12.4c3.4,0.7,6.3,2.6,8.7,5.7C662.1,442.9,663.3,446.4,663.4,450.5L663.4,450.5z M989.9,739.4v75.9c0,5.8-25.3,11.4-76,16.8c-4.1,9.8-9.2,19.1-15.3,28.2c17.3,40.8,26,65.8,26,74.8c0,1.5-0.7,2.7-2.1,3.8c-41.5,25.7-62.6,38.5-63.3,38.5c-2.7,0-10.5-8.5-23.5-25.5c-13-17-21.8-29.3-26.5-36.9c-6.8,0.7-11.9,1.1-15.3,1.1c-3.4,0-8.5-0.4-15.3-1.1c-4.8,7.6-13.6,19.9-26.5,36.9c-12.9,17-20.7,25.5-23.5,25.5c-0.7,0-21.8-12.8-63.3-38.5c-1.4-1.1-2.1-2.4-2.1-3.8c0-9,8.7-34,26-74.8c-6.1-9-11.2-18.4-15.3-28.2c-50.7-5.4-76-11-76-16.8v-75.9c0-5.8,25.3-11.4,76-16.8c4.4-10.5,9.5-19.9,15.3-28.2c-17.3-40.8-26-65.8-26-74.8c0-1.5,0.7-2.7,2.1-3.8c1.4-0.7,7.3-4.4,17.9-10.9c10.6-6.5,20.6-12.7,30.1-18.5c9.5-5.8,14.6-8.7,15.3-8.7c2.7,0,10.5,8.4,23.5,25.2c13,16.8,21.8,29,26.5,36.6c6.8-0.7,11.9-1.1,15.3-1.1c3.4,0,8.5,0.4,15.3,1.1c17.3-25.7,33-45.9,46.9-60.7l3.1-1.1c1.4,0,22.5,12.7,63.3,38c1.4,1.1,2.1,2.4,2.1,3.8c0,9-8.7,34-26,74.8c5.8,8.3,10.9,17.7,15.3,28.2C964.7,727.9,990,733.5,989.9,739.4L989.9,739.4z M989.9,184.2v75.9c0,5.8-25.3,11.4-76,16.8c-4.1,9.8-9.2,19.1-15.3,28.2c17.3,40.8,26,65.8,26,74.8c0,1.5-0.7,2.7-2.1,3.8c-41.5,25.7-62.6,38.5-63.3,38.5c-2.7,0-10.5-8.5-23.5-25.5c-13-17-21.8-29.3-26.5-36.9c-6.8,0.7-11.9,1.1-15.3,1.1c-3.4,0-8.5-0.4-15.3-1.1c-4.8,7.6-13.6,19.9-26.5,36.9c-12.9,17-20.7,25.5-23.5,25.5c-0.7,0-21.8-12.8-63.3-38.5c-1.4-1.1-2.1-2.4-2.1-3.8c0-9,8.7-34,26-74.8c-6.1-9-11.2-18.4-15.3-28.2c-50.7-5.4-76-11-76-16.8v-75.9c0-5.8,25.3-11.4,76-16.8c4.4-10.5,9.5-19.9,15.3-28.2c-17.3-40.8-26-65.8-26-74.8c0-1.5,0.7-2.7,2.1-3.8c1.4-0.7,7.3-4.4,17.9-10.9c10.6-6.5,20.6-12.7,30.1-18.5c9.5-5.8,14.6-8.7,15.3-8.7c2.7,0,10.5,8.4,23.5,25.2c13,16.8,21.8,29,26.5,36.6c6.8-0.7,11.9-1.1,15.3-1.1c3.4,0,8.5,0.4,15.3,1.1c17.3-25.7,33-45.9,46.9-60.7l3.1-1.1c1.4,0,22.5,12.7,63.3,38c1.4,1.1,2.1,2.4,2.1,3.8c0,9-8.7,34-26,74.8c5.8,8.3,10.9,17.7,15.3,28.2C964.7,172.8,990,178.4,989.9,184.2L989.9,184.2z"/></g>
	</symbol>
	<symbol viewBox="0 0 1000 1000" id="magic_wand">
		<g><g><g><path d="M973.8,182.4c0-10.8-3.6-19.8-10.8-26.9L844.5,36.9c-7.2-7.2-16.2-10.8-26.9-10.8c-10.8,0-19.8,3.6-26.9,10.8L20.8,806.8C13.6,814,10,823,10,833.8c0,10.8,3.6,19.7,10.8,26.9l118.5,118.5c7.2,7.2,16.2,10.8,26.9,10.8c10.8,0,19.8-3.6,26.9-10.8l769.9-769.9C970.2,202.2,973.8,193.2,973.8,182.4z M706.2,357.8l-64-64.1l175.4-175.4l64.1,64.1L706.2,357.8z"/><polygon points="147.1,163.3 165.1,104.6 223.7,86.6 165.1,68.7 147.1,10 129.1,68.7 70.5,86.6 129.1,104.6 "/><polygon points="302.7,237.5 338.7,354.8 374.6,237.5 491.9,201.6 374.6,165.6 338.7,48.3 302.7,165.6 185.4,201.6 "/><polygon points="931.3,451.8 913.4,393.1 895.4,451.8 836.8,469.8 895.4,487.7 913.4,546.4 931.3,487.7 990,469.8 "/><polygon points="530.2,163.3 548.2,104.6 606.9,86.6 548.2,68.7 530.2,10 512.3,68.7 453.6,86.6 512.3,104.6 "/></g></g><g></g><g></g><g></g><g></g><g></g><g></g><g></g><g></g><g></g><g></g><g></g><g></g><g></g><g></g><g></g></g>
	</symbol>
	<symbol viewBox="0 0 1000 1000" id="rocket">
		<g><g><path d="M855.6,202.3c0-16-5.6-29.6-16.8-40.8c-11.2-11.2-24.8-16.8-40.8-16.8s-29.6,5.6-40.8,16.8c-11.2,11.2-16.8,24.8-16.8,40.8s5.6,29.6,16.8,40.8c11.2,11.2,24.8,16.8,40.8,16.8s29.6-5.6,40.8-16.8C850,231.9,855.6,218.3,855.6,202.3z M990,29.5c0,99.6-15.1,185.7-45.3,258.4c-30.2,72.6-80.9,144.7-152.1,216.3c-32.4,32-71.4,67.2-117,105.6l-12,227.4c-0.8,6.4-4,11.6-9.6,15.6L423.5,987.3c-2.8,1.6-6,2.4-9.6,2.4c-4.8,0-9.4-1.8-13.8-5.4l-38.4-38.4c-5.2-5.6-6.8-12-4.8-19.2l51-165.6L239.2,592.4l-165.6,51c-1.2,0.4-3,0.6-5.4,0.6c-5.6,0-10.2-1.8-13.8-5.4L16,600.2c-6.8-7.6-7.8-15.4-3-23.4l134.4-230.5c4-5.6,9.2-8.8,15.6-9.6l227.5-12c38.4-45.6,73.6-84.6,105.6-117c75.2-74.8,146.8-126.4,214.8-154.8c68-28.4,154.2-42.6,258.7-42.6c5.6,0,10.4,1.9,14.4,5.7C988,19.8,990,24.3,990,29.5L990,29.5z"/></g></g>
	</symbol>
</svg>