<?xml version="1.0" encoding="utf-8"?>
<!-- Svg Vector Icons : http://www.onlinewebfonts.com/icon -->
<!DOCTYPE svg PUBLIC "-//W3C//DTD SVG 1.1//EN" "http://www.w3.org/Graphics/SVG/1.1/DTD/svg11.dtd">
<svg version="1.1" xmlns="http://www.w3.org/2000/svg" xmlns:xlink="http://www.w3.org/1999/xlink" x="0px" y="0px" viewBox="0 0 1000 1000" enable-background="new 0 0 1000 1000" xml:space="preserve">
<metadata> Svg Vector Icons : http://www.onlinewebfonts.com/icon </metadata>
<g><path d="M467.4,499.8c0-38.3-12.8-71-38.3-98.1c-25.5-27.1-56.3-40.7-92.4-40.7c-36,0-66.8,13.6-92.4,40.7c-25.5,27.1-38.3,59.8-38.3,98.1c0,38.3,12.8,71,38.3,98.1c25.5,27.1,56.3,40.7,92.4,40.7c36,0,66.8-13.6,92.4-40.7C454.7,570.8,467.4,538.1,467.4,499.8z M859.3,777.3c0-18.8-6.5-35.1-19.4-48.8s-28.2-20.6-45.9-20.6c-17.7,0-33,6.9-45.9,20.6c-12.9,13.7-19.4,30-19.4,48.8c0,19.1,6.4,35.5,19.1,49.1c12.8,13.6,28.2,20.3,46.2,20.3s33.4-6.8,46.2-20.3C852.9,812.8,859.3,796.5,859.3,777.3L859.3,777.3z M859.3,222.2c0-18.8-6.5-35.1-19.4-48.8s-28.2-20.6-45.9-20.6c-17.7,0-33,6.9-45.9,20.6c-12.9,13.7-19.4,30-19.4,48.8c0,19.1,6.4,35.5,19.1,49.1c12.8,13.6,28.2,20.3,46.2,20.3s33.4-6.8,46.2-20.3C852.9,257.7,859.3,241.3,859.3,222.2L859.3,222.2z M663.4,450.5v100.3c0,3.6-1.2,7.1-3.6,10.6c-2.4,3.4-5.1,5.3-8.2,5.7l-79.1,13c-3.7,12.7-9.2,26.4-16.3,41.2c11.6,17.4,26.9,38.2,45.9,62.4c2.4,3.6,3.6,7.2,3.6,10.9c0,4.3-1.2,7.8-3.6,10.3c-7.8,10.8-21.8,27-42.1,48.5c-20.3,21.5-33.6,32.2-40.1,32.2c-3.7,0-7.3-1.3-10.7-3.8l-58.7-48.8c-12.6,6.9-25.7,12.5-39.3,16.8c-3.7,39-7.6,67-11.7,84c-2.4,8.7-7.5,13-15.3,13h-94.9c-3.7,0-7.1-1.4-10.2-4.1c-3.1-2.7-4.8-5.9-5.1-9.5l-11.7-82.9c-11.6-3.6-24.3-9.2-38.3-16.8l-60.2,48.3c-2.4,2.6-5.8,3.8-10.2,3.8c-3.7,0-7.3-1.4-10.7-4.3c-49-48.1-73.5-77-73.5-86.8c0-3.2,1.2-6.7,3.6-10.3c3.4-5.1,10.4-14.6,20.9-28.7c10.6-14.1,18.6-25.1,24-33.1c-7.8-15.9-13.8-30.7-17.9-44.4l-77.6-13c-3.4-0.4-6.3-2.1-8.7-5.2c-2.4-3.1-3.6-6.6-3.6-10.6V448.9c0-3.6,1.2-7.1,3.6-10.6c2.4-3.4,5.1-5.3,8.2-5.7l79.1-13c3.7-12.7,9.2-26.4,16.3-41.2C105.6,361,90.3,340.2,71.3,316c-2.4-4-3.6-7.6-3.6-10.9c0-4.3,1.2-8,3.6-10.9c7.5-10.8,21.4-26.9,41.8-48.3s33.9-32,40.3-32c3.7,0,7.3,1.3,10.7,3.8l58.7,48.8c11.6-6.5,24.7-12.3,39.3-17.4c3.7-39,7.6-66.9,11.7-83.5c2.4-8.7,7.5-13,15.3-13h94.9c3.7,0,7.1,1.4,10.2,4.1c3.1,2.7,4.8,5.9,5.1,9.5l11.7,82.9c11.6,3.6,24.3,9.2,38.3,16.8l60.2-48.3c2.7-2.6,6.1-3.8,10.2-3.8c3.7,0,7.3,1.4,10.7,4.3c49,48.1,73.5,77,73.5,86.8c0,3.2-1.2,6.7-3.6,10.3c-4.1,5.8-11.2,15.5-21.4,29.3c-10.2,13.7-17.9,24.6-23,32.5c7.8,17.4,13.6,32.2,17.4,44.4l77.6,12.4c3.4,0.7,6.3,2.6,8.7,5.7C662.1,442.9,663.3,446.4,663.4,450.5L663.4,450.5z M989.9,739.4v75.9c0,5.8-25.3,11.4-76,16.8c-4.1,9.8-9.2,19.1-15.3,28.2c17.3,40.8,26,65.8,26,74.8c0,1.5-0.7,2.7-2.1,3.8c-41.5,25.7-62.6,38.5-63.3,38.5c-2.7,0-10.5-8.5-23.5-25.5c-13-17-21.8-29.3-26.5-36.9c-6.8,0.7-11.9,1.1-15.3,1.1c-3.4,0-8.5-0.4-15.3-1.1c-4.8,7.6-13.6,19.9-26.5,36.9c-12.9,17-20.7,25.5-23.5,25.5c-0.7,0-21.8-12.8-63.3-38.5c-1.4-1.1-2.1-2.4-2.1-3.8c0-9,8.7-34,26-74.8c-6.1-9-11.2-18.4-15.3-28.2c-50.7-5.4-76-11-76-16.8v-75.9c0-5.8,25.3-11.4,76-16.8c4.4-10.5,9.5-19.9,15.3-28.2c-17.3-40.8-26-65.8-26-74.8c0-1.5,0.7-2.7,2.1-3.8c1.4-0.7,7.3-4.4,17.9-10.9c10.6-6.5,20.6-12.7,30.1-18.5c9.5-5.8,14.6-8.7,15.3-8.7c2.7,0,10.5,8.4,23.5,25.2c13,16.8,21.8,29,26.5,36.6c6.8-0.7,11.9-1.1,15.3-1.1c3.4,0,8.5,0.4,15.3,1.1c17.3-25.7,33-45.9,46.9-60.7l3.1-1.1c1.4,0,22.5,12.7,63.3,38c1.4,1.1,2.1,2.4,2.1,3.8c0,9-8.7,34-26,74.8c5.8,8.3,10.9,17.7,15.3,28.2C964.7,727.9,990,733.5,989.9,739.4L989.9,739.4z M989.9,184.2v75.9c0,5.8-25.3,11.4-76,16.8c-4.1,9.8-9.2,19.1-15.3,28.2c17.3,40.8,26,65.8,26,74.8c0,1.5-0.7,2.7-2.1,3.8c-41.5,25.7-62.6,38.5-63.3,38.5c-2.7,0-10.5-8.5-23.5-25.5c-13-17-21.8-29.3-26.5-36.9c-6.8,0.7-11.9,1.1-15.3,1.1c-3.4,0-8.5-0.4-15.3-1.1c-4.8,7.6-13.6,19.9-26.5,36.9c-12.9,17-20.7,25.5-23.5,25.5c-0.7,0-21.8-12.8-63.3-38.5c-1.4-1.1-2.1-2.4-2.1-3.8c0-9,8.7-34,26-74.8c-6.1-9-11.2-18.4-15.3-28.2c-50.7-5.4-76-11-76-16.8v-75.9c0-5.8,25.3-11.4,76-16.8c4.4-10.5,9.5-19.9,15.3-28.2c-17.3-40.8-26-65.8-26-74.8c0-1.5,0.7-2.7,2.1-3.8c1.4-0.7,7.3-4.4,17.9-10.9c10.6-6.5,20.6-12.7,30.1-18.5c9.5-5.8,14.6-8.7,15.3-8.7c2.7,0,10.5,8.4,23.5,25.2c13,16.8,21.8,29,26.5,36.6c6.8-0.7,11.9-1.1,15.3-1.1c3.4,0,8.5,0.4,15.3,1.1c17.3-25.7,33-45.9,46.9-60.7l3.1-1.1c1.4,0,22.5,12.7,63.3,38c1.4,1.1,2.1,2.4,2.1,3.8c0,9-8.7,34-26,74.8c5.8,8.3,10.9,17.7,15.3,28.2C964.7,172.8,990,178.4,989.9,184.2L989.9,184.2z"/></g>
</svg>