<?xml version="1.0" standalone="no"?>
<!DOCTYPE svg PUBLIC "-//W3C//DTD SVG 20010904//EN"
 "http://www.w3.org/TR/2001/REC-SVG-20010904/DTD/svg10.dtd">
<svg version="1.0" xmlns="http://www.w3.org/2000/svg"
 width="700.000000pt" height="700.000000pt" viewBox="0 0 700.000000 700.000000"
 preserveAspectRatio="xMidYMid meet">
<metadata>
Created by potrace 1.11, written by Peter Selinger 2001-2013
</metadata>
<g transform="translate(0.000000,700.000000) scale(0.100000,-0.100000)"
fill="#000000" stroke="none">
<path d="M3308 6985 c-1 -1 -43 -6 -93 -9 -90 -7 -354 -42 -387 -52 -10 -3
-30 -7 -45 -10 -16 -2 -39 -7 -53 -10 -14 -3 -35 -8 -47 -10 -53 -10 -277 -78
-377 -115 -386 -141 -755 -356 -1072 -624 -92 -78 -333 -321 -411 -415 -114
-138 -315 -424 -332 -474 -2 -6 -12 -22 -21 -36 -27 -38 -142 -272 -188 -380
-112 -266 -202 -595 -238 -875 -3 -27 -8 -58 -10 -68 -25 -132 -24 -653 1
-811 2 -12 6 -43 10 -71 3 -27 17 -108 31 -180 119 -612 383 -1154 792 -1626
132 -153 338 -349 482 -459 25 -19 50 -39 55 -43 138 -114 508 -328 720 -416
44 -19 94 -39 110 -46 113 -48 468 -150 590 -169 20 -4 40 -8 44 -10 3 -2 29
-7 56 -10 76 -10 138 -18 160 -22 139 -25 691 -25 823 1 10 2 43 6 73 10 89
12 121 17 189 30 14 3 34 7 45 9 172 34 498 137 650 206 234 106 365 176 535
287 97 64 264 184 280 202 3 3 32 28 65 56 162 134 357 337 498 518 390 500
634 1091 711 1722 32 259 28 695 -8 900 -3 17 -8 53 -12 80 -7 57 -11 79 -18
103 -3 9 -7 33 -10 52 -15 98 -84 335 -149 510 -275 743 -826 1391 -1527 1796
-252 146 -647 306 -886 359 -10 2 -52 11 -93 20 -41 9 -77 18 -80 19 -3 2 -28
7 -56 10 -27 4 -57 9 -65 11 -14 3 -45 7 -152 20 -24 3 -63 7 -88 10 -48 7
-496 15 -502 10z m387 -189 c132 -7 278 -24 370 -42 11 -2 54 -11 95 -19 868
-170 1652 -716 2137 -1490 38 -60 76 -123 85 -140 87 -170 134 -270 168 -357
23 -56 45 -112 50 -123 12 -29 34 -100 30 -100 -2 0 2 -9 8 -21 11 -22 77
-268 87 -326 3 -18 8 -40 10 -48 2 -8 7 -35 11 -60 3 -25 7 -52 9 -60 3 -16
14 -94 20 -145 49 -412 4 -900 -119 -1305 -116 -382 -280 -709 -517 -1026
-188 -252 -349 -415 -655 -663 -6 -5 -53 -38 -105 -74 -385 -266 -805 -444
-1254 -531 -71 -14 -159 -28 -195 -32 -36 -3 -67 -8 -70 -9 -10 -6 -272 -19
-375 -19 -163 0 -320 12 -467 35 -37 6 -78 12 -90 13 -13 2 -36 6 -53 10 -16
3 -39 8 -50 10 -287 55 -743 227 -955 361 -22 14 -42 25 -45 25 -5 0 -224 144
-290 190 -129 92 -410 352 -539 500 -46 53 -229 295 -253 335 -6 11 -38 63
-71 115 -133 215 -269 524 -342 775 -37 131 -54 201 -84 361 -2 12 -7 45 -11
75 -4 30 -8 56 -10 59 -2 3 -6 43 -10 90 -4 47 -9 101 -11 120 -6 59 -6 370 1
455 44 580 232 1131 547 1599 451 672 1103 1140 1883 1355 61 16 124 32 142
34 17 3 35 7 40 10 4 3 28 8 53 11 25 3 56 8 70 11 28 6 132 21 200 30 25 3
104 8 175 11 72 3 131 6 132 7 2 3 131 -1 248 -7z"/>
<path d="M3417 6274 c-1 -1 -40 -4 -87 -7 -98 -7 -208 -27 -297 -55 -35 -11
-63 -18 -63 -15 0 3 -7 0 -15 -7 -8 -7 -15 -9 -15 -5 0 4 -6 2 -13 -4 -8 -6
-17 -8 -20 -4 -4 3 -7 1 -7 -5 0 -7 -7 -12 -16 -12 -18 0 -202 -88 -221 -106
-6 -6 -25 -17 -42 -24 -17 -7 -31 -16 -31 -21 0 -5 -5 -9 -11 -9 -9 0 -72 -43
-89 -60 -3 -3 -23 -19 -45 -35 -64 -48 -225 -217 -285 -299 -75 -102 -149
-233 -194 -341 -21 -49 -41 -99 -46 -110 -8 -19 -23 -80 -20 -80 1 0 -3 -13
-9 -28 -6 -15 -13 -42 -16 -60 -3 -18 -10 -48 -15 -67 -19 -73 -34 -450 -18
-450 4 0 2 -13 -3 -30 -6 -16 -15 -27 -20 -24 -5 3 -9 1 -9 -4 0 -6 -12 -15
-27 -21 -16 -6 -48 -24 -73 -40 -25 -16 -51 -30 -57 -30 -7 -1 -13 -5 -13 -11
0 -5 -7 -10 -15 -10 -8 0 -15 -4 -15 -8 0 -5 -12 -15 -27 -23 -16 -8 -33 -18
-39 -24 -7 -5 -31 -26 -55 -45 -63 -50 -197 -185 -252 -255 -26 -33 -56 -71
-67 -85 -11 -14 -20 -31 -20 -37 0 -7 -4 -13 -9 -13 -5 0 -13 -9 -16 -20 -3
-11 -12 -26 -18 -32 -12 -12 -89 -167 -89 -178 0 -3 -6 -16 -13 -30 -15 -27
-63 -163 -69 -195 -2 -11 -9 -39 -16 -63 -42 -157 -54 -470 -24 -632 4 -19 8
-42 9 -50 9 -57 18 -96 22 -103 2 -4 7 -19 9 -34 3 -14 14 -51 25 -82 11 -31
22 -60 23 -66 14 -49 100 -222 145 -293 23 -34 41 -67 41 -73 0 -6 4 -7 10 -4
6 3 10 -1 10 -9 0 -8 12 -28 27 -44 16 -15 39 -43 53 -61 42 -55 201 -211 214
-211 3 0 17 -11 32 -25 34 -32 190 -135 204 -135 5 0 10 -5 10 -11 0 -5 4 -8
9 -5 5 3 14 -1 21 -9 7 -8 16 -12 21 -9 5 3 9 0 9 -7 0 -7 3 -9 7 -6 3 4 11 2
18 -3 20 -16 155 -69 245 -96 110 -32 142 -40 225 -50 22 -3 54 -7 70 -9 42
-6 323 -6 365 -1 56 7 111 17 172 31 31 7 59 10 62 7 3 -3 6 -1 6 4 0 5 9 10
21 11 89 7 460 184 529 253 29 29 37 29 68 2 17 -16 59 -44 92 -63 34 -19 68
-40 76 -47 8 -7 14 -10 14 -6 0 4 9 -1 19 -10 11 -10 25 -18 33 -20 23 -3 78
-31 78 -38 0 -5 7 -8 16 -8 8 0 36 -8 62 -19 59 -24 128 -44 147 -44 8 0 15
-5 15 -10 0 -6 3 -8 6 -5 3 4 20 2 37 -3 18 -5 48 -12 67 -15 19 -3 49 -8 65
-11 66 -11 86 -12 230 -12 189 -1 277 7 370 31 22 6 51 12 65 15 45 8 235 75
238 84 2 5 11 9 19 9 18 0 180 85 206 108 9 8 17 12 17 8 0 -4 6 -1 14 6 7 7
24 20 36 28 12 8 28 21 36 27 7 7 15 13 19 13 4 0 12 6 19 12 7 7 39 36 71 63
68 59 149 142 199 205 19 25 41 52 48 60 7 9 19 28 27 43 8 15 21 35 30 45 9
10 23 31 32 47 9 17 30 55 47 85 16 30 30 58 31 62 1 5 9 25 18 45 39 92 86
224 85 243 0 8 4 26 9 40 5 14 11 41 13 60 3 19 5 35 6 35 14 0 20 424 7 510
-12 86 -17 110 -43 201 -14 49 -25 95 -26 102 -1 6 -5 12 -8 12 -4 0 -10 14
-14 31 -19 95 -186 385 -278 481 -14 15 -24 28 -21 28 12 0 -204 204 -249 235
-51 36 -159 105 -188 121 -19 10 -36 22 -38 27 -2 4 -7 7 -12 7 -4 0 -45 17
-89 38 l-81 38 -4 174 c-2 96 -6 184 -9 196 -3 11 -6 38 -8 60 -1 21 -7 45
-12 52 -5 6 -7 12 -4 12 3 0 1 17 -4 38 -6 20 -12 51 -15 67 -3 17 -10 33 -16
36 -5 3 -9 10 -9 15 1 13 -18 73 -39 119 -9 22 -21 51 -25 65 -4 14 -10 27
-14 30 -3 3 -21 36 -40 73 -34 68 -97 167 -156 243 -43 56 -222 235 -275 275
-25 18 -51 39 -58 46 -7 7 -17 13 -22 13 -5 0 -15 6 -22 13 -22 21 -119 77
-133 77 -7 0 -15 4 -17 9 -5 13 -151 80 -246 112 -108 37 -255 68 -351 75 -75
6 -250 11 -254 8z"/>
</g>
</svg>
